<mxfile host="app.diagrams.net" modified="2023-06-23T17:23:36.872Z" agent="Mozilla/5.0 (Windows NT 10.0; Win64; x64) AppleWebKit/537.36 (KHTML, like Gecko) Chrome/114.0.0.0 Safari/537.36 Edg/114.0.1823.51" etag="NyxN4qpMSuzZDI6kasB-" version="21.5.0" type="github">
  <diagram id="R2lEEEUBdFMjLlhIrx00" name="Page-1">
    <mxGraphModel dx="2284" dy="796" grid="1" gridSize="10" guides="1" tooltips="1" connect="1" arrows="1" fold="1" page="1" pageScale="1" pageWidth="850" pageHeight="1100" math="0" shadow="0" extFonts="Permanent Marker^https://fonts.googleapis.com/css?family=Permanent+Marker">
      <root>
        <mxCell id="0" />
        <mxCell id="1" parent="0" />
        <mxCell id="dcMxhLTWKotf6TOCeaWC-50" value="" style="edgeStyle=orthogonalEdgeStyle;rounded=0;orthogonalLoop=1;jettySize=auto;html=1;" edge="1" parent="1" target="dcMxhLTWKotf6TOCeaWC-42">
          <mxGeometry relative="1" as="geometry">
            <mxPoint x="1130" y="340" as="sourcePoint" />
          </mxGeometry>
        </mxCell>
        <mxCell id="dcMxhLTWKotf6TOCeaWC-48" value="" style="edgeStyle=orthogonalEdgeStyle;rounded=0;orthogonalLoop=1;jettySize=auto;html=1;" edge="1" parent="1" source="dcMxhLTWKotf6TOCeaWC-30" target="dcMxhLTWKotf6TOCeaWC-46">
          <mxGeometry relative="1" as="geometry" />
        </mxCell>
        <mxCell id="dcMxhLTWKotf6TOCeaWC-30" value="Apellido" style="ellipse;whiteSpace=wrap;html=1;align=center;" vertex="1" parent="1">
          <mxGeometry x="930" y="800" width="100" height="40" as="geometry" />
        </mxCell>
        <mxCell id="dcMxhLTWKotf6TOCeaWC-49" style="edgeStyle=orthogonalEdgeStyle;rounded=0;orthogonalLoop=1;jettySize=auto;html=1;entryX=0.75;entryY=1;entryDx=0;entryDy=0;" edge="1" parent="1" source="dcMxhLTWKotf6TOCeaWC-32" target="dcMxhLTWKotf6TOCeaWC-46">
          <mxGeometry relative="1" as="geometry" />
        </mxCell>
        <mxCell id="dcMxhLTWKotf6TOCeaWC-32" value="Nombre" style="ellipse;whiteSpace=wrap;html=1;align=center;" vertex="1" parent="1">
          <mxGeometry x="1070" y="730" width="100" height="40" as="geometry" />
        </mxCell>
        <mxCell id="dcMxhLTWKotf6TOCeaWC-33" style="edgeStyle=orthogonalEdgeStyle;rounded=0;orthogonalLoop=1;jettySize=auto;html=1;entryX=0.75;entryY=0;entryDx=0;entryDy=0;" edge="1" parent="1" source="dcMxhLTWKotf6TOCeaWC-34">
          <mxGeometry relative="1" as="geometry">
            <mxPoint x="1000" y="670" as="targetPoint" />
          </mxGeometry>
        </mxCell>
        <mxCell id="dcMxhLTWKotf6TOCeaWC-34" value="NIF" style="ellipse;whiteSpace=wrap;html=1;align=center;" vertex="1" parent="1">
          <mxGeometry x="1145" y="540" width="100" height="40" as="geometry" />
        </mxCell>
        <mxCell id="dcMxhLTWKotf6TOCeaWC-35" style="edgeStyle=orthogonalEdgeStyle;rounded=0;orthogonalLoop=1;jettySize=auto;html=1;" edge="1" parent="1" source="dcMxhLTWKotf6TOCeaWC-36">
          <mxGeometry relative="1" as="geometry">
            <mxPoint x="1020" y="670" as="targetPoint" />
          </mxGeometry>
        </mxCell>
        <mxCell id="dcMxhLTWKotf6TOCeaWC-36" value="Teléfono" style="ellipse;whiteSpace=wrap;html=1;align=center;" vertex="1" parent="1">
          <mxGeometry x="1110" y="620" width="100" height="40" as="geometry" />
        </mxCell>
        <mxCell id="dcMxhLTWKotf6TOCeaWC-45" style="edgeStyle=orthogonalEdgeStyle;rounded=0;orthogonalLoop=1;jettySize=auto;html=1;" edge="1" parent="1" source="dcMxhLTWKotf6TOCeaWC-42" target="dcMxhLTWKotf6TOCeaWC-43">
          <mxGeometry relative="1" as="geometry" />
        </mxCell>
        <mxCell id="dcMxhLTWKotf6TOCeaWC-42" value="Sucursal" style="whiteSpace=wrap;html=1;align=center;" vertex="1" parent="1">
          <mxGeometry x="930" y="320" width="100" height="40" as="geometry" />
        </mxCell>
        <mxCell id="dcMxhLTWKotf6TOCeaWC-43" value="Tiene" style="shape=rhombus;perimeter=rhombusPerimeter;whiteSpace=wrap;html=1;align=center;" vertex="1" parent="1">
          <mxGeometry x="920" y="480" width="120" height="60" as="geometry" />
        </mxCell>
        <mxCell id="dcMxhLTWKotf6TOCeaWC-47" style="edgeStyle=orthogonalEdgeStyle;rounded=0;orthogonalLoop=1;jettySize=auto;html=1;" edge="1" parent="1" source="dcMxhLTWKotf6TOCeaWC-46" target="dcMxhLTWKotf6TOCeaWC-43">
          <mxGeometry relative="1" as="geometry" />
        </mxCell>
        <mxCell id="dcMxhLTWKotf6TOCeaWC-59" style="edgeStyle=orthogonalEdgeStyle;rounded=0;orthogonalLoop=1;jettySize=auto;html=1;" edge="1" parent="1" source="dcMxhLTWKotf6TOCeaWC-46" target="dcMxhLTWKotf6TOCeaWC-57">
          <mxGeometry relative="1" as="geometry" />
        </mxCell>
        <mxCell id="dcMxhLTWKotf6TOCeaWC-46" value="Empleados" style="whiteSpace=wrap;html=1;align=center;" vertex="1" parent="1">
          <mxGeometry x="930" y="670" width="100" height="40" as="geometry" />
        </mxCell>
        <mxCell id="dcMxhLTWKotf6TOCeaWC-54" style="edgeStyle=orthogonalEdgeStyle;rounded=0;orthogonalLoop=1;jettySize=auto;html=1;entryX=0.75;entryY=0;entryDx=0;entryDy=0;" edge="1" parent="1" target="dcMxhLTWKotf6TOCeaWC-42">
          <mxGeometry relative="1" as="geometry">
            <mxPoint x="1130" y="220" as="sourcePoint" />
          </mxGeometry>
        </mxCell>
        <mxCell id="dcMxhLTWKotf6TOCeaWC-53" style="edgeStyle=orthogonalEdgeStyle;rounded=0;orthogonalLoop=1;jettySize=auto;html=1;" edge="1" parent="1" target="dcMxhLTWKotf6TOCeaWC-42">
          <mxGeometry relative="1" as="geometry">
            <mxPoint x="980" y="190" as="sourcePoint" />
          </mxGeometry>
        </mxCell>
        <mxCell id="dcMxhLTWKotf6TOCeaWC-57" value="Publican" style="shape=rhombus;perimeter=rhombusPerimeter;whiteSpace=wrap;html=1;align=center;" vertex="1" parent="1">
          <mxGeometry x="610" y="660" width="120" height="60" as="geometry" />
        </mxCell>
        <mxCell id="dcMxhLTWKotf6TOCeaWC-64" style="edgeStyle=orthogonalEdgeStyle;rounded=0;orthogonalLoop=1;jettySize=auto;html=1;" edge="1" parent="1" source="dcMxhLTWKotf6TOCeaWC-60" target="dcMxhLTWKotf6TOCeaWC-57">
          <mxGeometry relative="1" as="geometry" />
        </mxCell>
        <mxCell id="dcMxhLTWKotf6TOCeaWC-78" style="edgeStyle=orthogonalEdgeStyle;rounded=0;orthogonalLoop=1;jettySize=auto;html=1;" edge="1" parent="1" source="dcMxhLTWKotf6TOCeaWC-60" target="dcMxhLTWKotf6TOCeaWC-73">
          <mxGeometry relative="1" as="geometry" />
        </mxCell>
        <mxCell id="dcMxhLTWKotf6TOCeaWC-60" value="Revistas" style="whiteSpace=wrap;html=1;align=center;" vertex="1" parent="1">
          <mxGeometry x="390" y="670" width="100" height="40" as="geometry" />
        </mxCell>
        <mxCell id="dcMxhLTWKotf6TOCeaWC-72" value="Periodistas" style="whiteSpace=wrap;html=1;align=center;" vertex="1" parent="1">
          <mxGeometry x="-60" y="670" width="100" height="40" as="geometry" />
        </mxCell>
        <mxCell id="dcMxhLTWKotf6TOCeaWC-74" value="" style="edgeStyle=orthogonalEdgeStyle;rounded=0;orthogonalLoop=1;jettySize=auto;html=1;" edge="1" parent="1" source="dcMxhLTWKotf6TOCeaWC-73" target="dcMxhLTWKotf6TOCeaWC-72">
          <mxGeometry relative="1" as="geometry" />
        </mxCell>
        <mxCell id="dcMxhLTWKotf6TOCeaWC-73" value="Escriben" style="shape=rhombus;perimeter=rhombusPerimeter;whiteSpace=wrap;html=1;align=center;" vertex="1" parent="1">
          <mxGeometry x="170" y="660" width="120" height="60" as="geometry" />
        </mxCell>
        <mxCell id="dcMxhLTWKotf6TOCeaWC-100" value="" style="edgeStyle=orthogonalEdgeStyle;rounded=0;orthogonalLoop=1;jettySize=auto;html=1;" edge="1" parent="1" source="dcMxhLTWKotf6TOCeaWC-92" target="dcMxhLTWKotf6TOCeaWC-72">
          <mxGeometry relative="1" as="geometry" />
        </mxCell>
        <mxCell id="dcMxhLTWKotf6TOCeaWC-92" value="Apellido" style="ellipse;whiteSpace=wrap;html=1;align=center;" vertex="1" parent="1">
          <mxGeometry x="-60" y="780" width="100" height="40" as="geometry" />
        </mxCell>
        <mxCell id="dcMxhLTWKotf6TOCeaWC-97" style="edgeStyle=orthogonalEdgeStyle;rounded=0;orthogonalLoop=1;jettySize=auto;html=1;" edge="1" parent="1" source="dcMxhLTWKotf6TOCeaWC-93" target="dcMxhLTWKotf6TOCeaWC-72">
          <mxGeometry relative="1" as="geometry" />
        </mxCell>
        <mxCell id="dcMxhLTWKotf6TOCeaWC-93" value="Nombre" style="ellipse;whiteSpace=wrap;html=1;align=center;" vertex="1" parent="1">
          <mxGeometry x="-230" y="670" width="100" height="40" as="geometry" />
        </mxCell>
        <mxCell id="dcMxhLTWKotf6TOCeaWC-96" style="edgeStyle=orthogonalEdgeStyle;rounded=0;orthogonalLoop=1;jettySize=auto;html=1;" edge="1" parent="1" source="dcMxhLTWKotf6TOCeaWC-94" target="dcMxhLTWKotf6TOCeaWC-72">
          <mxGeometry relative="1" as="geometry" />
        </mxCell>
        <mxCell id="dcMxhLTWKotf6TOCeaWC-94" value="NIF" style="ellipse;whiteSpace=wrap;html=1;align=center;" vertex="1" parent="1">
          <mxGeometry x="-60" y="520" width="100" height="40" as="geometry" />
        </mxCell>
        <mxCell id="dcMxhLTWKotf6TOCeaWC-98" style="edgeStyle=orthogonalEdgeStyle;rounded=0;orthogonalLoop=1;jettySize=auto;html=1;entryX=0.25;entryY=0;entryDx=0;entryDy=0;" edge="1" parent="1" source="dcMxhLTWKotf6TOCeaWC-95" target="dcMxhLTWKotf6TOCeaWC-72">
          <mxGeometry relative="1" as="geometry" />
        </mxCell>
        <mxCell id="dcMxhLTWKotf6TOCeaWC-95" value="Teléfono" style="ellipse;whiteSpace=wrap;html=1;align=center;" vertex="1" parent="1">
          <mxGeometry x="-230" y="560" width="100" height="40" as="geometry" />
        </mxCell>
        <mxCell id="dcMxhLTWKotf6TOCeaWC-102" style="edgeStyle=orthogonalEdgeStyle;rounded=0;orthogonalLoop=1;jettySize=auto;html=1;entryX=0.25;entryY=1;entryDx=0;entryDy=0;" edge="1" parent="1" source="dcMxhLTWKotf6TOCeaWC-101" target="dcMxhLTWKotf6TOCeaWC-72">
          <mxGeometry relative="1" as="geometry">
            <Array as="points">
              <mxPoint x="-200" y="740" />
              <mxPoint x="-35" y="740" />
            </Array>
          </mxGeometry>
        </mxCell>
        <mxCell id="dcMxhLTWKotf6TOCeaWC-101" value="NIF" style="ellipse;whiteSpace=wrap;html=1;align=center;fontStyle=4;" vertex="1" parent="1">
          <mxGeometry x="-250" y="780" width="100" height="40" as="geometry" />
        </mxCell>
        <mxCell id="dcMxhLTWKotf6TOCeaWC-104" style="edgeStyle=orthogonalEdgeStyle;rounded=0;orthogonalLoop=1;jettySize=auto;html=1;entryX=0.25;entryY=1;entryDx=0;entryDy=0;" edge="1" parent="1" target="dcMxhLTWKotf6TOCeaWC-46">
          <mxGeometry relative="1" as="geometry">
            <mxPoint x="870" y="790" as="sourcePoint" />
          </mxGeometry>
        </mxCell>
        <mxCell id="dcMxhLTWKotf6TOCeaWC-105" value="NIF" style="ellipse;whiteSpace=wrap;html=1;align=center;fontStyle=4;" vertex="1" parent="1">
          <mxGeometry x="780" y="770" width="100" height="40" as="geometry" />
        </mxCell>
        <mxCell id="dcMxhLTWKotf6TOCeaWC-107" value="" style="edgeStyle=orthogonalEdgeStyle;rounded=0;orthogonalLoop=1;jettySize=auto;html=1;" edge="1" parent="1" source="dcMxhLTWKotf6TOCeaWC-106" target="dcMxhLTWKotf6TOCeaWC-42">
          <mxGeometry relative="1" as="geometry" />
        </mxCell>
        <mxCell id="dcMxhLTWKotf6TOCeaWC-106" value="Código de sucursal" style="ellipse;whiteSpace=wrap;html=1;align=center;fontStyle=4;" vertex="1" parent="1">
          <mxGeometry x="750" y="320" width="100" height="40" as="geometry" />
        </mxCell>
        <mxCell id="dcMxhLTWKotf6TOCeaWC-108" value="1" style="text;html=1;align=center;verticalAlign=middle;resizable=0;points=[];autosize=1;strokeColor=none;fillColor=none;" vertex="1" parent="1">
          <mxGeometry x="945" y="368" width="30" height="30" as="geometry" />
        </mxCell>
        <mxCell id="dcMxhLTWKotf6TOCeaWC-109" value="1" style="text;html=1;align=center;verticalAlign=middle;resizable=0;points=[];autosize=1;strokeColor=none;fillColor=none;" vertex="1" parent="1">
          <mxGeometry x="945" y="448" width="30" height="30" as="geometry" />
        </mxCell>
        <mxCell id="dcMxhLTWKotf6TOCeaWC-110" value="N" style="text;html=1;align=center;verticalAlign=middle;resizable=0;points=[];autosize=1;strokeColor=none;fillColor=none;" vertex="1" parent="1">
          <mxGeometry x="945" y="548" width="30" height="30" as="geometry" />
        </mxCell>
        <mxCell id="dcMxhLTWKotf6TOCeaWC-111" value="1" style="text;html=1;align=center;verticalAlign=middle;resizable=0;points=[];autosize=1;strokeColor=none;fillColor=none;" vertex="1" parent="1">
          <mxGeometry x="945" y="638" width="30" height="30" as="geometry" />
        </mxCell>
        <mxCell id="dcMxhLTWKotf6TOCeaWC-112" value="1:N" style="text;html=1;align=center;verticalAlign=middle;resizable=0;points=[];autosize=1;strokeColor=none;fillColor=none;" vertex="1" parent="1">
          <mxGeometry x="880" y="495" width="40" height="30" as="geometry" />
        </mxCell>
        <mxCell id="dcMxhLTWKotf6TOCeaWC-120" style="edgeStyle=orthogonalEdgeStyle;rounded=0;orthogonalLoop=1;jettySize=auto;html=1;entryX=0.83;entryY=0.05;entryDx=0;entryDy=0;entryPerimeter=0;" edge="1" parent="1" source="dcMxhLTWKotf6TOCeaWC-113" target="dcMxhLTWKotf6TOCeaWC-60">
          <mxGeometry relative="1" as="geometry" />
        </mxCell>
        <mxCell id="dcMxhLTWKotf6TOCeaWC-113" value="Periodicidad" style="ellipse;whiteSpace=wrap;html=1;align=center;" vertex="1" parent="1">
          <mxGeometry x="510" y="550" width="100" height="40" as="geometry" />
        </mxCell>
        <mxCell id="dcMxhLTWKotf6TOCeaWC-121" style="edgeStyle=orthogonalEdgeStyle;rounded=0;orthogonalLoop=1;jettySize=auto;html=1;entryX=0.38;entryY=0;entryDx=0;entryDy=0;entryPerimeter=0;" edge="1" parent="1" source="dcMxhLTWKotf6TOCeaWC-114" target="dcMxhLTWKotf6TOCeaWC-60">
          <mxGeometry relative="1" as="geometry" />
        </mxCell>
        <mxCell id="dcMxhLTWKotf6TOCeaWC-114" value="Número de registro" style="ellipse;whiteSpace=wrap;html=1;align=center;" vertex="1" parent="1">
          <mxGeometry x="290" y="543" width="100" height="40" as="geometry" />
        </mxCell>
        <mxCell id="dcMxhLTWKotf6TOCeaWC-117" style="edgeStyle=orthogonalEdgeStyle;rounded=0;orthogonalLoop=1;jettySize=auto;html=1;entryX=0.25;entryY=1;entryDx=0;entryDy=0;" edge="1" parent="1" source="dcMxhLTWKotf6TOCeaWC-115" target="dcMxhLTWKotf6TOCeaWC-60">
          <mxGeometry relative="1" as="geometry" />
        </mxCell>
        <mxCell id="dcMxhLTWKotf6TOCeaWC-115" value="Título" style="ellipse;whiteSpace=wrap;html=1;align=center;" vertex="1" parent="1">
          <mxGeometry x="290" y="790" width="100" height="40" as="geometry" />
        </mxCell>
        <mxCell id="dcMxhLTWKotf6TOCeaWC-119" style="edgeStyle=orthogonalEdgeStyle;rounded=0;orthogonalLoop=1;jettySize=auto;html=1;entryX=0.75;entryY=1;entryDx=0;entryDy=0;" edge="1" parent="1" source="dcMxhLTWKotf6TOCeaWC-116" target="dcMxhLTWKotf6TOCeaWC-60">
          <mxGeometry relative="1" as="geometry" />
        </mxCell>
        <mxCell id="dcMxhLTWKotf6TOCeaWC-116" value="Tipo" style="ellipse;whiteSpace=wrap;html=1;align=center;" vertex="1" parent="1">
          <mxGeometry x="500" y="790" width="100" height="40" as="geometry" />
        </mxCell>
        <mxCell id="dcMxhLTWKotf6TOCeaWC-123" value="Telefono" style="ellipse;whiteSpace=wrap;html=1;align=center;" vertex="1" parent="1">
          <mxGeometry x="1110" y="320" width="100" height="40" as="geometry" />
        </mxCell>
        <mxCell id="dcMxhLTWKotf6TOCeaWC-124" value="Domicilio" style="ellipse;whiteSpace=wrap;html=1;align=center;" vertex="1" parent="1">
          <mxGeometry x="1110" y="200" width="100" height="40" as="geometry" />
        </mxCell>
        <mxCell id="dcMxhLTWKotf6TOCeaWC-125" value="Código de sucursal" style="ellipse;whiteSpace=wrap;html=1;align=center;" vertex="1" parent="1">
          <mxGeometry x="930" y="140" width="100" height="40" as="geometry" />
        </mxCell>
        <mxCell id="dcMxhLTWKotf6TOCeaWC-128" style="edgeStyle=orthogonalEdgeStyle;rounded=0;orthogonalLoop=1;jettySize=auto;html=1;" edge="1" parent="1" source="dcMxhLTWKotf6TOCeaWC-126" target="dcMxhLTWKotf6TOCeaWC-60">
          <mxGeometry relative="1" as="geometry" />
        </mxCell>
        <mxCell id="dcMxhLTWKotf6TOCeaWC-126" value="Número de registro" style="ellipse;whiteSpace=wrap;html=1;align=center;fontStyle=4;" vertex="1" parent="1">
          <mxGeometry x="390" y="920" width="100" height="40" as="geometry" />
        </mxCell>
        <mxCell id="dcMxhLTWKotf6TOCeaWC-129" value="1" style="text;html=1;align=center;verticalAlign=middle;resizable=0;points=[];autosize=1;strokeColor=none;fillColor=none;" vertex="1" parent="1">
          <mxGeometry x="135" y="648" width="30" height="30" as="geometry" />
        </mxCell>
        <mxCell id="dcMxhLTWKotf6TOCeaWC-130" value="1" style="text;html=1;align=center;verticalAlign=middle;resizable=0;points=[];autosize=1;strokeColor=none;fillColor=none;" vertex="1" parent="1">
          <mxGeometry x="45" y="648" width="30" height="30" as="geometry" />
        </mxCell>
        <mxCell id="dcMxhLTWKotf6TOCeaWC-131" value="N" style="text;html=1;align=center;verticalAlign=middle;resizable=0;points=[];autosize=1;strokeColor=none;fillColor=none;" vertex="1" parent="1">
          <mxGeometry x="275" y="648" width="30" height="30" as="geometry" />
        </mxCell>
        <mxCell id="dcMxhLTWKotf6TOCeaWC-132" value="1:N" style="text;html=1;align=center;verticalAlign=middle;resizable=0;points=[];autosize=1;strokeColor=none;fillColor=none;" vertex="1" parent="1">
          <mxGeometry x="210" y="608" width="40" height="30" as="geometry" />
        </mxCell>
        <mxCell id="dcMxhLTWKotf6TOCeaWC-134" style="edgeStyle=orthogonalEdgeStyle;rounded=0;orthogonalLoop=1;jettySize=auto;html=1;entryX=0.84;entryY=0.975;entryDx=0;entryDy=0;entryPerimeter=0;" edge="1" parent="1" target="dcMxhLTWKotf6TOCeaWC-72">
          <mxGeometry relative="1" as="geometry">
            <mxPoint x="65" y="760" as="sourcePoint" />
          </mxGeometry>
        </mxCell>
        <mxCell id="dcMxhLTWKotf6TOCeaWC-135" value="&lt;span style=&quot;border-bottom: 1px dotted&quot;&gt;Numero de registro&lt;/span&gt;" style="ellipse;whiteSpace=wrap;html=1;align=center;" vertex="1" parent="1">
          <mxGeometry x="60" y="740" width="100" height="40" as="geometry" />
        </mxCell>
        <mxCell id="dcMxhLTWKotf6TOCeaWC-136" value="1" style="text;html=1;align=center;verticalAlign=middle;resizable=0;points=[];autosize=1;strokeColor=none;fillColor=none;" vertex="1" parent="1">
          <mxGeometry x="895" y="658" width="30" height="30" as="geometry" />
        </mxCell>
        <mxCell id="dcMxhLTWKotf6TOCeaWC-137" value="N" style="text;html=1;align=center;verticalAlign=middle;resizable=0;points=[];autosize=1;strokeColor=none;fillColor=none;" vertex="1" parent="1">
          <mxGeometry x="715" y="648" width="30" height="30" as="geometry" />
        </mxCell>
        <mxCell id="dcMxhLTWKotf6TOCeaWC-138" value="1" style="text;html=1;align=center;verticalAlign=middle;resizable=0;points=[];autosize=1;strokeColor=none;fillColor=none;" vertex="1" parent="1">
          <mxGeometry x="590" y="648" width="30" height="30" as="geometry" />
        </mxCell>
        <mxCell id="dcMxhLTWKotf6TOCeaWC-140" value="1" style="text;html=1;align=center;verticalAlign=middle;resizable=0;points=[];autosize=1;strokeColor=none;fillColor=none;" vertex="1" parent="1">
          <mxGeometry x="495" y="658" width="30" height="30" as="geometry" />
        </mxCell>
        <mxCell id="dcMxhLTWKotf6TOCeaWC-142" style="edgeStyle=orthogonalEdgeStyle;rounded=0;orthogonalLoop=1;jettySize=auto;html=1;" edge="1" parent="1" source="dcMxhLTWKotf6TOCeaWC-141" target="dcMxhLTWKotf6TOCeaWC-60">
          <mxGeometry relative="1" as="geometry" />
        </mxCell>
        <mxCell id="dcMxhLTWKotf6TOCeaWC-141" value="&lt;span style=&quot;border-bottom: 1px dotted&quot;&gt;NIF&lt;/span&gt;" style="ellipse;whiteSpace=wrap;html=1;align=center;" vertex="1" parent="1">
          <mxGeometry x="390" y="448" width="100" height="40" as="geometry" />
        </mxCell>
      </root>
    </mxGraphModel>
  </diagram>
</mxfile>
